<svg width="44" height="44" viewBox="0 0 44 44" fill="none" xmlns="http://www.w3.org/2000/svg">
<path fill-rule="evenodd" clip-rule="evenodd" d="M16.9548 0.293664C21.4998 -1.01417 26.0603 2.37526 30.4297 3.99885C35.1113 5.73845 41.6324 6.42851 43.5035 10.1587C45.4387 14.0169 41.2152 18.0431 39.4308 21.9442C38.1629 24.7162 35.5451 26.916 34.5418 29.7514C33.0755 33.8948 36.1832 39.2547 32.2314 42.2889C28.5533 45.113 22.1218 43.6903 16.9548 43.2548C12.1813 42.8525 6.1321 42.9538 3.49667 39.8672C0.575831 36.4463 4.31772 31.8712 3.76035 27.8015C3.47311 25.7041 1.5363 24.0186 1.04202 21.9442C0.465818 19.526 -0.745451 16.9172 0.638839 14.7012C2.03054 12.4732 6.1574 12.2398 8.2683 10.3758C11.7709 7.28287 11.9594 1.7311 16.9548 0.293664Z" fill="#4FEBF9" fill-opacity="0.3"/>
<path fill-rule="evenodd" clip-rule="evenodd" d="M25.3627 0.0900457C28.8766 -0.626073 31.986 3.07905 34.4431 5.89018C36.5679 8.32117 36.6754 11.9786 38.2633 14.8498C39.8854 17.7826 43.2356 19.5583 43.856 22.9097C44.4991 26.3836 42.8496 29.7866 41.6376 33.0779C40.264 36.8082 39.6279 41.6319 36.3042 43.4176C32.9508 45.2192 29.0793 42.3108 25.3627 41.8215C22.1448 41.3979 18.8629 42.0399 15.8574 40.7258C12.6028 39.3027 9.98869 36.773 7.55529 34.0353C4.55896 30.6643 0.320987 27.5758 0.02157 22.9097C-0.27618 18.2696 2.54783 13.524 6.06782 10.8548C9.42516 8.30882 14.4195 11.2612 18.0633 9.22831C21.4277 7.35131 21.6429 0.848126 25.3627 0.0900457Z" fill="#4FEBF9" fill-opacity="0.3"/>
<path d="M27.88 28.6C27.88 29.9255 26.8055 31 25.48 31C24.1545 31 23.08 29.9255 23.08 28.6C23.08 27.2745 24.1545 26.2 25.48 26.2C26.8055 26.2 27.88 27.2745 27.88 28.6Z" fill="#4FEBF9"/>
<path d="M19.48 22C19.48 23.3255 18.4055 24.4 17.08 24.4C15.7545 24.4 14.68 23.3255 14.68 22C14.68 20.6745 15.7545 19.6 17.08 19.6C18.4055 19.6 19.48 20.6745 19.48 22Z" fill="#4FEBF9"/>
<path d="M27.88 15.4C27.88 16.7255 26.8055 17.8 25.48 17.8C24.1545 17.8 23.08 16.7255 23.08 15.4C23.08 14.0745 24.1545 13 25.48 13C26.8055 13 27.88 14.0745 27.88 15.4Z" fill="#4FEBF9"/>
<path d="M28.48 28.5368H31M14.68 22L13 22.044M14.68 22C14.68 23.3255 15.7545 24.4 17.08 24.4C18.4055 24.4 19.48 23.3255 19.48 22C19.48 20.6745 18.4055 19.6 17.08 19.6C15.7545 19.6 14.68 20.6745 14.68 22ZM20.169 22.0441H31M22.801 15.5512L13 15.5512M31 15.5512H28.48M13 28.5368H22.801M27.88 28.6C27.88 29.9255 26.8055 31 25.48 31C24.1545 31 23.08 29.9255 23.08 28.6C23.08 27.2745 24.1545 26.2 25.48 26.2C26.8055 26.2 27.88 27.2745 27.88 28.6ZM27.88 15.4C27.88 16.7255 26.8055 17.8 25.48 17.8C24.1545 17.8 23.08 16.7255 23.08 15.4C23.08 14.0745 24.1545 13 25.48 13C26.8055 13 27.88 14.0745 27.88 15.4Z" stroke="#242424" stroke-width="1.5" stroke-linecap="round"/>
</svg>
