<svg width="44" height="44" viewBox="0 0 44 44" fill="none" xmlns="http://www.w3.org/2000/svg">
<path fill-rule="evenodd" clip-rule="evenodd" d="M22.344 0.563776C25.0078 1.32748 26.6241 4.35909 29.1467 5.60327C32.1351 7.07718 36.6979 5.30625 38.4039 8.48475C40.091 11.628 35.6246 15.5458 36.4055 19.1271C37.5956 24.5853 45.231 27.9729 43.8288 33.3644C42.5921 38.1194 35.9306 37.2939 31.6131 37.5541C28.36 37.7501 25.5103 33.7808 22.344 34.6592C17.5624 35.9856 14.3568 46.2971 10.0685 43.5308C5.80857 40.7828 12.5257 32.0842 10.4669 26.9976C8.70196 22.6369 1.41535 23.7256 0.191199 19.1271C-0.907122 15.0014 2.98043 11.2065 5.37895 7.88498C7.51506 4.92687 10.1152 2.39745 13.2485 1.0453C16.1386 -0.201926 19.3483 -0.295059 22.344 0.563776Z" fill="#4FEBF9" fill-opacity="0.25"/>
<path fill-rule="evenodd" clip-rule="evenodd" d="M23.5405 7.87562C28.7434 6.11836 31.6544 -0.576814 37.2108 0.0399953C41.8077 0.550284 42.9247 6.29417 43.8402 10.1291C44.6349 13.4575 42.2187 16.6284 41.9806 20.0177C41.7607 23.147 44.8003 26.7923 42.4965 29.2517C40.0875 31.8234 34.185 29.1753 31.3247 31.3935C27.1309 34.6459 29.1624 43.1787 23.5405 43.9524C18.4167 44.6576 17.1071 37.3519 14.1376 33.759C12.3138 31.5522 11.4954 28.9426 9.4372 26.8878C6.77019 24.2252 1.53968 23.3621 0.373448 20.0177C-0.769202 16.741 0.818231 12.7641 3.66529 10.3359C6.48224 7.93338 11.0397 8.03126 15.0027 7.54069C17.8704 7.18571 20.8497 8.78443 23.5405 7.87562Z" fill="#4FEBF9" fill-opacity="0.25"/>
<path d="M11.1911 18.188C12.0055 14.7163 14.7163 12.0055 18.188 11.1911C20.6953 10.603 23.3047 10.603 25.812 11.1911C29.2837 12.0055 31.9945 14.7163 32.8089 18.188C33.397 20.6953 33.397 23.3047 32.8089 25.812C31.9945 29.2837 29.2837 31.9945 25.812 32.8089C23.3047 33.397 20.6953 33.397 18.188 32.8089C14.7163 31.9945 12.0055 29.2837 11.1911 25.812C10.603 23.3047 10.603 20.6953 11.1911 18.188Z" fill="#4FEBF9" stroke="#4FEBF9" stroke-width="3"/>
<path fill-rule="evenodd" clip-rule="evenodd" d="M25.125 25.125L21.5768 22.8674V18.25" fill="#242424" fill-opacity="0.15"/>
<path d="M25.125 25.125L21.5768 22.8674V18.25" stroke="#242424" stroke-width="3" stroke-linecap="round" stroke-linejoin="round"/>
</svg>
