<svg width="44" height="44" viewBox="0 0 44 44" fill="none" xmlns="http://www.w3.org/2000/svg">
<path fill-rule="evenodd" clip-rule="evenodd" d="M18.1734 0.161382C21.3003 -0.523378 24.3193 1.16591 27.483 1.59493C32.7621 2.31084 39.9027 -1.20243 43.0684 3.5374C46.0613 8.01842 41.0247 14.1907 39.4272 19.4783C38.2771 23.2855 36.8266 26.7861 34.9979 30.2515C33.1794 33.6976 31.6562 37.4304 28.728 39.7535C25.6639 42.1844 21.9284 43.2605 18.1734 43.5993C14.2142 43.9565 9.39628 44.8572 6.57852 41.7519C3.62034 38.4918 5.59166 32.7511 4.3298 28.3427C3.40681 25.1182 0.616077 22.8302 0.202886 19.4783C-0.23466 15.9288 -0.0969705 11.8595 1.95708 9.09455C3.9987 6.34637 7.89382 6.83912 10.7693 5.2551C13.4155 3.79738 15.2748 0.79617 18.1734 0.161382Z" fill="#4FEBF9" fill-opacity="0.3"/>
<path fill-rule="evenodd" clip-rule="evenodd" d="M24.5938 0.031301C28.8771 0.625378 28.0913 7.96702 31.6661 10.3313C34.8118 12.4118 40.1803 9.32158 42.7546 12.0424C45.1588 14.5835 43.4361 18.8012 42.9062 22.2115C42.4351 25.2434 42.0228 28.5278 39.8474 30.7526C37.7668 32.8804 33.7768 31.8968 31.5236 33.8524C28.3542 36.6032 28.8343 43.6711 24.5938 43.9914C20.5308 44.2984 20.8572 36.2564 17.0113 34.9488C11.6861 33.1383 2.98454 40.6241 0.392194 35.763C-2.26898 30.7729 9.45644 27.7807 10.2186 22.2115C10.8244 17.7851 2.06484 14.7101 3.83747 10.5891C5.4897 6.74798 12.4483 10.126 16.2486 8.19297C19.8078 6.38257 20.6153 -0.520505 24.5938 0.031301Z" fill="#4FEBF9" fill-opacity="0.3"/>
<path d="M26.8442 31.3592L27.0699 31.2032C27.7762 30.7148 28.1293 30.4706 28.4452 30.2088C30.1618 28.7861 31.3147 26.803 31.6985 24.6132C31.7691 24.2102 31.8058 23.7838 31.8792 22.9312L31.9171 22.4903C32.0386 21.0789 32.0265 19.6594 31.881 18.2503L31.8359 17.8142C31.5812 15.3484 30.0674 13.1871 27.8305 12.0958C24.1527 10.3014 19.8473 10.3014 16.1695 12.0958C13.9326 13.1871 12.4188 15.3484 12.1641 17.8142L12.119 18.2503C11.9735 19.6594 11.9614 21.0789 12.0829 22.4903L12.1208 22.9312C12.1942 23.7838 12.2309 24.2102 12.3015 24.6132C12.6853 26.803 13.8382 28.7861 15.5548 30.2088C15.8706 30.4706 16.2239 30.7148 16.9301 31.2032L17.1558 31.3592C18.1159 32.0232 18.596 32.3552 19.0772 32.5859C20.9241 33.4714 23.0759 33.4714 24.9228 32.5859C25.404 32.3552 25.8841 32.0232 26.8442 31.3592Z" fill="#4FEBF9" stroke="#4FEBF9" stroke-width="1.5"/>
<path d="M18.5625 21.6875L21.0625 24.1875L25.4375 19.5" stroke="#242424" stroke-width="3" stroke-linecap="round" stroke-linejoin="round"/>
</svg>
