<svg width="408" height="443" viewBox="0 0 408 443" fill="none" xmlns="http://www.w3.org/2000/svg">
<path opacity="0.1" d="M14.3799 315.359C-2.99547 298.252 -10.0061 283.862 -10.2275 270.906C-10.449 257.939 -3.88643 245.724 7.50427 232.92C18.855 220.16 34.6596 207.183 52.4046 192.613L52.6072 192.446C70.3733 177.859 89.9701 161.749 108.512 142.916C127.054 124.083 142.76 104.336 156.925 86.4916L157.234 86.1031C171.322 68.3546 183.813 52.6195 196.156 41.309C208.581 29.9229 220.489 23.3709 233.303 23.5282C246.123 23.6856 260.533 30.5697 277.918 47.687C347.2 115.899 344.66 231.193 271.781 305.215C198.902 379.237 83.6615 383.571 14.3799 315.359Z" stroke="white" stroke-width="5"/>
</svg>
