<svg width="33" height="25" viewBox="0 0 33 25" fill="none" xmlns="http://www.w3.org/2000/svg">
<mask id="mask0_260_1785" style="mask-type:alpha" maskUnits="userSpaceOnUse" x="4" y="3" width="24" height="18">
<rect x="4" y="3" width="24" height="18" rx="3.81" fill="white"/>
</mask>
<g mask="url(#mask0_260_1785)">
<path fill-rule="evenodd" clip-rule="evenodd" d="M4 3V21H28V3H4Z" fill="#FFB400"/>
<mask id="mask1_260_1785" style="mask-type:alpha" maskUnits="userSpaceOnUse" x="4" y="3" width="24" height="18">
<path fill-rule="evenodd" clip-rule="evenodd" d="M4 3V21H28V3H4Z" fill="white"/>
</mask>
<g mask="url(#mask1_260_1785)">
<path fill-rule="evenodd" clip-rule="evenodd" d="M4 3V7.5H28V3H4Z" fill="#C51918"/>
<path fill-rule="evenodd" clip-rule="evenodd" d="M4 16.5V21H28V16.5H4Z" fill="#C51918"/>
<rect x="7.75781" y="10.7036" width="0.84" height="4.368" fill="#F1F9FF"/>
<path fill-rule="evenodd" clip-rule="evenodd" d="M8.93388 9.94775H7.42188V10.3678H7.6729V10.7043H8.6809V10.3678H8.93388V9.94775Z" fill="#C88A02"/>
<path fill-rule="evenodd" clip-rule="evenodd" d="M8.68187 15.3238H8.93388V15.7438H7.42188V15.3238H7.67387V14.9878H8.68187V15.3238Z" fill="#C88A02"/>
<path fill-rule="evenodd" clip-rule="evenodd" d="M8.1798 10.0319C8.3626 10.0319 8.38118 9.96308 8.48902 9.86027C8.57276 9.78044 8.7678 9.68144 8.7678 9.56991C8.7678 9.31475 8.50454 9.10791 8.1798 9.10791C7.85505 9.10791 7.5918 9.31475 7.5918 9.56991C7.5918 9.69416 7.72611 9.77724 7.82766 9.86027C7.93465 9.94775 8.01319 10.0319 8.1798 10.0319Z" fill="#AD1619"/>
<path fill-rule="evenodd" clip-rule="evenodd" d="M7.42188 15.7441H8.93388V16.4161C8.93388 16.4161 8.74487 16.3321 8.55587 16.3321C8.36687 16.3321 8.17788 16.4161 8.17788 16.4161C8.17788 16.4161 7.98888 16.3321 7.79988 16.3321C7.61088 16.3321 7.42188 16.4161 7.42188 16.4161V15.7441Z" fill="#005BBF"/>
<mask id="mask2_260_1785" style="mask-type:alpha" maskUnits="userSpaceOnUse" x="7" y="15" width="2" height="2">
<path fill-rule="evenodd" clip-rule="evenodd" d="M7.42188 15.7441H8.93388V16.4161C8.93388 16.4161 8.74487 16.3321 8.55587 16.3321C8.36687 16.3321 8.17788 16.4161 8.17788 16.4161C8.17788 16.4161 7.98888 16.3321 7.79988 16.3321C7.61088 16.3321 7.42188 16.4161 7.42188 16.4161V15.7441Z" fill="white"/>
</mask>
<g mask="url(#mask2_260_1785)">
<path d="M7.40605 16.2838L7.37305 16.2033C7.50923 16.1427 7.6459 16.1123 7.78277 16.1123C7.87121 16.1123 7.91739 16.1246 7.99589 16.1596C8.06485 16.1903 8.10059 16.1998 8.176 16.1998C8.25142 16.1998 8.28716 16.1903 8.35611 16.1596C8.43462 16.1246 8.4808 16.1123 8.56923 16.1123C8.7061 16.1123 8.84277 16.1427 8.97896 16.2033L8.94596 16.2838C8.81999 16.2277 8.69451 16.1998 8.56923 16.1998C8.49382 16.1998 8.45807 16.2093 8.38912 16.24C8.31061 16.275 8.26443 16.2873 8.176 16.2873C8.08757 16.2873 8.04139 16.275 7.96289 16.24C7.89393 16.2093 7.85819 16.1998 7.78277 16.1998C7.6575 16.1998 7.53202 16.2277 7.40605 16.2838Z" fill="white"/>
<path d="M7.40605 16.0323L7.37305 15.9519C7.50923 15.8913 7.6459 15.8608 7.78277 15.8608C7.87121 15.8608 7.91739 15.8732 7.99589 15.9081C8.06485 15.9388 8.10059 15.9483 8.176 15.9483C8.25142 15.9483 8.28716 15.9388 8.35611 15.9081C8.43462 15.8732 8.4808 15.8608 8.56923 15.8608C8.7061 15.8608 8.84277 15.8913 8.97896 15.9519L8.94596 16.0323C8.81999 15.9763 8.69451 15.9483 8.56923 15.9483C8.49382 15.9483 8.45807 15.9579 8.38912 15.9886C8.31061 16.0235 8.26443 16.0358 8.176 16.0358C8.08757 16.0358 8.04139 16.0235 7.96289 15.9886C7.89393 15.9579 7.85819 15.9483 7.78277 15.9483C7.6575 15.9483 7.53202 15.9763 7.40605 16.0323Z" fill="white"/>
</g>
<rect x="15.9902" y="10.7036" width="0.84" height="4.368" fill="#F1F9FF"/>
<path fill-rule="evenodd" clip-rule="evenodd" d="M17.1663 9.94775H15.6543V10.3678H15.905V10.7043H16.913V10.3678H17.1663V9.94775Z" fill="#C88A02"/>
<path fill-rule="evenodd" clip-rule="evenodd" d="M16.9143 15.3238H17.1663V15.7438H15.6543V15.3238H15.9063V14.9878H16.9143V15.3238Z" fill="#C88A02"/>
<path fill-rule="evenodd" clip-rule="evenodd" d="M16.4103 10.0319C16.5931 10.0319 16.6116 9.96308 16.7195 9.86027C16.8032 9.78044 16.9983 9.68144 16.9983 9.56991C16.9983 9.31475 16.735 9.10791 16.4103 9.10791C16.0855 9.10791 15.8223 9.31475 15.8223 9.56991C15.8223 9.69416 15.9566 9.77724 16.0581 9.86027C16.1651 9.94775 16.2437 10.0319 16.4103 10.0319Z" fill="#AD1619"/>
<path fill-rule="evenodd" clip-rule="evenodd" d="M15.6543 15.7441H17.1663V16.4161C17.1663 16.4161 16.9773 16.3321 16.7883 16.3321C16.5993 16.3321 16.4103 16.4161 16.4103 16.4161C16.4103 16.4161 16.2213 16.3321 16.0323 16.3321C15.8433 16.3321 15.6543 16.4161 15.6543 16.4161V15.7441Z" fill="#005BBF"/>
<mask id="mask3_260_1785" style="mask-type:alpha" maskUnits="userSpaceOnUse" x="15" y="15" width="3" height="2">
<path fill-rule="evenodd" clip-rule="evenodd" d="M15.6543 15.7441H17.1663V16.4161C17.1663 16.4161 16.9773 16.3321 16.7883 16.3321C16.5993 16.3321 16.4103 16.4161 16.4103 16.4161C16.4103 16.4161 16.2213 16.3321 16.0323 16.3321C15.8433 16.3321 15.6543 16.4161 15.6543 16.4161V15.7441Z" fill="white"/>
</mask>
<g mask="url(#mask3_260_1785)">
<path d="M15.6385 16.2838L15.6055 16.2033C15.7417 16.1427 15.8783 16.1123 16.0152 16.1123C16.1036 16.1123 16.1498 16.1246 16.2283 16.1596C16.2973 16.1903 16.333 16.1998 16.4084 16.1998C16.4838 16.1998 16.5196 16.1903 16.5885 16.1596C16.667 16.1246 16.7132 16.1123 16.8017 16.1123C16.9385 16.1123 17.0752 16.1427 17.2114 16.2033L17.1784 16.2838C17.0524 16.2277 16.9269 16.1998 16.8017 16.1998C16.7262 16.1998 16.6905 16.2093 16.6215 16.24C16.543 16.275 16.4969 16.2873 16.4084 16.2873C16.32 16.2873 16.2738 16.275 16.1953 16.24C16.1264 16.2093 16.0906 16.1998 16.0152 16.1998C15.8899 16.1998 15.7644 16.2277 15.6385 16.2838Z" fill="white"/>
<path d="M15.6385 16.0323L15.6055 15.9519C15.7417 15.8913 15.8783 15.8608 16.0152 15.8608C16.1036 15.8608 16.1498 15.8732 16.2283 15.9081C16.2973 15.9388 16.333 15.9483 16.4084 15.9483C16.4838 15.9483 16.5196 15.9388 16.5885 15.9081C16.667 15.8732 16.7132 15.8608 16.8017 15.8608C16.9385 15.8608 17.0752 15.8913 17.2114 15.9519L17.1784 16.0323C17.0524 15.9763 16.9269 15.9483 16.8017 15.9483C16.7262 15.9483 16.6905 15.9579 16.6215 15.9886C16.543 16.0235 16.4969 16.0358 16.4084 16.0358C16.32 16.0358 16.2738 16.0235 16.1953 15.9886C16.1264 15.9579 16.0906 15.9483 16.0152 15.9483C15.8899 15.9483 15.7644 15.9763 15.6385 16.0323Z" fill="white"/>
</g>
<path fill-rule="evenodd" clip-rule="evenodd" d="M16.5308 14.2319C16.5308 14.4093 16.6155 14.5763 16.767 14.7599L17.2828 14.3345L17.332 14.3194L17.3595 14.1044C17.4102 13.7073 17.2404 13.4873 16.8907 13.3283L16.8666 13.3177C16.8187 13.2966 16.7141 13.2507 16.6788 13.2338C16.605 13.1984 16.5441 13.1633 16.4873 13.122C16.4313 13.0812 16.3711 13.0428 16.2986 13.0007C16.7314 12.9312 16.9653 12.8799 17.1447 12.8026C17.574 12.6176 17.6294 12.1881 17.2167 11.9039C16.6541 11.5164 15.148 11.4816 14.487 11.8229L14.7953 12.42C15.1197 12.2525 15.8571 12.2209 16.3736 12.3069C16.295 12.3206 16.2069 12.335 16.1082 12.3505L15.856 12.3896L15.8132 12.3963C15.6069 12.4283 15.4662 12.4691 15.3619 12.5401C15.1491 12.685 15.1176 12.9461 15.2695 13.1387C15.3336 13.22 15.4174 13.2808 15.5443 13.3544C15.585 13.378 15.6288 13.4021 15.6877 13.4335L15.7185 13.4499L15.8322 13.5104C15.9533 13.5754 16.0328 13.6223 16.0921 13.6655C16.1849 13.733 16.2802 13.7879 16.3883 13.8397C16.4464 13.8676 16.6135 13.9404 16.6126 13.94L16.6224 13.9445C16.5641 14.0234 16.5308 14.12 16.5308 14.2319ZM7.74302 14.76C7.89446 14.5764 7.97915 14.4094 7.97915 14.2319C7.97915 14.1201 7.94586 14.0235 7.88754 13.9445L7.89739 13.9401C7.89649 13.9405 8.06353 13.8677 8.12169 13.8398C8.22981 13.788 8.32505 13.7331 8.41792 13.6655C8.47721 13.6224 8.55665 13.5755 8.67775 13.5104L8.79158 13.4499L8.82227 13.4336C8.88112 13.4022 8.92495 13.3781 8.96567 13.3545C9.09254 13.2809 9.17639 13.2201 9.24052 13.1388C9.39241 12.9462 9.36087 12.6851 9.14802 12.5401C9.04374 12.4692 8.90303 12.4284 8.69675 12.3963L8.65402 12.3897L8.40174 12.3506C8.30303 12.3351 8.21495 12.3207 8.13642 12.3069C8.65285 12.221 9.39028 12.2526 9.71465 12.4201L10.0229 11.823C9.36193 11.4817 7.85583 11.5165 7.29324 11.904C6.88059 12.1881 6.93596 12.6177 7.3653 12.8027C7.5447 12.88 7.77857 12.9313 8.21136 13.0008C8.13883 13.0429 8.0787 13.0813 8.02268 13.1221C7.96586 13.1634 7.90499 13.1985 7.83115 13.2339C7.79584 13.2508 7.69125 13.2967 7.64333 13.3178L7.61924 13.3284C7.26952 13.4874 7.0998 13.7074 7.15052 14.1045L7.17797 14.3194L7.22722 14.3346L7.74302 14.76ZM7.31141 14.2043L7.31034 14.2074L7.31116 14.2052L7.31141 14.2043Z" fill="#AD1619"/>
<path d="M8.44433 12.2998L8.69227 12.3511V12.7207C8.4282 12.9314 7.75781 13.2865 7.75781 13.2865V12.2998H8.44433Z" fill="#F1F9FF"/>
<path d="M16.2373 12.2998L15.9894 12.3511V12.7207C16.2534 12.9314 16.9238 13.2865 16.9238 13.2865V12.2998H16.2373Z" fill="#F1F9FF"/>
<path fill-rule="evenodd" clip-rule="evenodd" d="M15.0841 8.40434V8.28135C14.652 7.97126 14.1996 7.81622 13.7267 7.81622C13.2736 7.61572 12.815 7.53782 12.3509 7.58255C12.351 7.58121 12.3511 7.58053 12.3511 7.58053C11.6528 7.51221 10.9492 7.8163 10.9492 7.8163C10.2399 7.8163 9.5918 8.28143 9.5918 8.28143V8.40442L10.439 9.25531C10.439 9.25531 10.6774 10.0741 12.3469 9.8819V9.88382C12.3469 9.88382 13.4527 9.85364 13.5304 9.8278C13.5612 9.81754 13.5932 9.80821 13.6259 9.79867C13.8425 9.73544 14.0897 9.66326 14.2369 9.25523L15.0841 8.40434ZM12.3469 7.62841C12.3211 7.93415 12.1877 9.60892 12.3469 9.87493V7.62841Z" fill="#AD1619"/>
<path fill-rule="evenodd" clip-rule="evenodd" d="M10.2364 9.1121L10.2369 9.10985L9.64062 8.54884L9.69818 8.48766L10.2577 9.01411L10.2721 8.94794C10.3636 8.96783 10.4305 8.97515 10.4695 8.971V8.85686L10.5935 8.92395C10.6544 8.95695 10.7418 8.96583 10.8568 8.94711C10.9413 8.93336 10.9983 8.83525 11.0169 8.62617L11.0546 8.2041L11.1808 8.60861C11.2379 8.79166 11.325 8.87235 11.4491 8.87235C11.5702 8.87235 11.6189 8.82793 11.6243 8.71597L11.6396 8.39843L11.7832 8.68205C11.8349 8.78423 11.9062 8.83059 12.0077 8.83059C12.1528 8.83059 12.2497 8.70963 12.2497 8.51985H12.2517H12.4177H12.4197C12.4197 8.70963 12.5166 8.83059 12.6617 8.83059C12.7632 8.83059 12.8345 8.78423 12.8862 8.68205L13.0298 8.39843L13.0451 8.71597C13.0505 8.82793 13.0992 8.87235 13.2203 8.87235C13.3444 8.87235 13.4315 8.79166 13.4886 8.60861L13.6148 8.2041L13.6525 8.62617C13.6711 8.83525 13.7281 8.93336 13.8126 8.94711C13.9276 8.96583 14.015 8.95695 14.0759 8.92395L14.1999 8.85686V8.971C14.2389 8.97515 14.3058 8.96783 14.3973 8.94794L14.4239 9.07047L15.0434 8.48766L15.1009 8.54884L14.3305 9.27373C14.2181 9.48075 14.1615 9.61739 14.1615 9.67415C14.1615 9.76075 13.9362 9.81215 13.4965 9.86494C13.152 9.9063 12.7455 9.93406 12.4129 9.93821V9.93875L12.3708 9.93861L12.3286 9.93875V9.93821C11.9961 9.93406 11.5896 9.9063 11.2451 9.86494C10.8054 9.81215 10.5801 9.76075 10.5801 9.67415C10.5801 9.66322 10.578 9.64932 10.5738 9.63253C10.53 9.57637 10.4991 9.4851 10.4784 9.40244C10.4588 9.36316 10.4363 9.32022 10.4111 9.27373L10.2402 9.11291L10.2364 9.1121ZM14.3654 9.12552C14.2275 9.14999 14.128 9.14758 14.0752 9.1046C13.9927 9.12859 13.896 9.1309 13.7856 9.11293C13.6677 9.09374 13.5856 9.0153 13.5362 8.88517C13.4719 8.96703 13.3907 9.01769 13.2935 9.03431C13.8309 9.11054 14.2072 9.21764 14.2072 9.21764C14.2072 9.21764 14.198 9.29674 14.1756 9.38995C14.1994 9.34128 14.2275 9.28725 14.2599 9.22767L14.268 9.21716L14.3654 9.12552ZM13.0378 9.00214C12.9915 8.97893 12.9545 8.9454 12.9276 8.90225C12.8878 8.93746 12.8425 8.96326 12.7921 8.97925C12.8761 8.98567 12.9582 8.99342 13.0378 9.00214ZM12.4942 8.96286C12.4292 8.93269 12.3752 8.88458 12.3347 8.823C12.2945 8.88416 12.2409 8.93204 12.1766 8.96224C12.2148 8.96111 12.2532 8.96031 12.2919 8.95988V8.9595L12.3255 8.95959L12.359 8.9595V8.95988C12.4043 8.96038 12.4494 8.96139 12.4942 8.96286ZM10.4672 9.21118L10.389 9.13758C10.4832 9.14699 10.553 9.13817 10.5942 9.1046C10.6767 9.12859 10.7734 9.1309 10.8838 9.11293C11.0017 9.09374 11.0838 9.0153 11.1332 8.88517C11.1957 8.96475 11.2742 9.01484 11.3678 9.03284C10.9039 9.09805 10.558 9.18675 10.4672 9.21118ZM11.8738 8.97812C11.7928 8.98414 11.7136 8.99141 11.6365 8.99961C11.6806 8.97652 11.7159 8.94385 11.7418 8.90225C11.7807 8.93664 11.8248 8.96206 11.8738 8.97812ZM13.941 9.67545C13.9996 9.70288 14.0466 9.67574 14.0839 9.62343C14.0807 9.63787 14.0787 9.65094 14.0779 9.66266C14.0729 9.66588 14.0654 9.66977 14.0555 9.67393C14.0278 9.68557 13.9855 9.69796 13.9306 9.7105C13.8225 9.73515 13.6687 9.75965 13.4864 9.78154C13.1305 9.82428 12.7073 9.8524 12.3708 9.85461C12.0343 9.8524 11.6111 9.82428 11.2551 9.78154C11.0728 9.75965 10.919 9.73515 10.811 9.7105C10.7647 9.69994 10.7274 9.68949 10.7003 9.6795C10.7035 9.67831 10.7067 9.67696 10.7099 9.67545C10.8934 9.58957 12.1072 9.50898 12.3255 9.4951C12.5437 9.50898 13.7575 9.58957 13.941 9.67545ZM14.1721 9.66031L14.1708 9.66178L14.1716 9.66071L14.1721 9.66031Z" fill="#C88A02"/>
<path fill-rule="evenodd" clip-rule="evenodd" d="M12.336 7.01035C12.4752 7.01035 12.588 6.89752 12.588 6.75835C12.588 6.61917 12.4752 6.50635 12.336 6.50635C12.1968 6.50635 12.084 6.61917 12.084 6.75835C12.084 6.89752 12.1968 7.01035 12.336 7.01035Z" fill="#005BBF"/>
<path fill-rule="evenodd" clip-rule="evenodd" d="M12.1745 8.24723C12.1799 8.27476 12.1882 8.30041 12.1988 8.32329C12.1663 8.31098 12.1279 8.30386 12.0867 8.30386C11.9707 8.30386 11.8767 8.36027 11.8767 8.42986C11.8767 8.49944 11.9707 8.55586 12.0867 8.55586C12.2027 8.55586 12.2967 8.49944 12.2967 8.42986L12.2966 8.42624L12.2968 8.4263L12.2967 8.42986C12.2967 8.49944 12.3907 8.55586 12.5067 8.55586C12.6227 8.55586 12.7167 8.49944 12.7167 8.42986C12.7167 8.36027 12.6227 8.30386 12.5067 8.30386C12.4773 8.30386 12.4494 8.30747 12.424 8.314C12.4301 8.27955 12.4298 8.24004 12.4219 8.19914C12.3998 8.08529 12.3265 8.00376 12.2581 8.01704C12.1898 8.03032 12.1524 8.13338 12.1745 8.24723ZM10.9387 8.40748C10.9282 8.3846 10.9198 8.35895 10.9145 8.33142C10.8923 8.21757 10.9298 8.11451 10.9981 8.10123C11.0664 8.08795 11.1397 8.16948 11.1618 8.28333C11.1698 8.32423 11.17 8.36374 11.1639 8.39819C11.1893 8.39166 11.2173 8.38805 11.2466 8.38805C11.3626 8.38805 11.4566 8.44446 11.4566 8.51405C11.4566 8.58363 11.3626 8.64005 11.2466 8.64005C11.1307 8.64005 11.0366 8.58363 11.0366 8.51405L11.0367 8.51049L11.0365 8.51043L11.0366 8.51405C11.0366 8.58363 10.9426 8.64005 10.8266 8.64005C10.7106 8.64005 10.6166 8.58363 10.6166 8.51405C10.6166 8.44446 10.7106 8.38805 10.8266 8.38805C10.8678 8.38805 10.9063 8.39517 10.9387 8.40748ZM13.5684 8.48477C13.5588 8.55368 13.4578 8.59646 13.343 8.58032C13.2281 8.56418 13.1428 8.49523 13.1525 8.42632C13.1622 8.35741 13.2632 8.31463 13.378 8.33077C13.4202 8.33669 13.4583 8.34972 13.4892 8.36724C13.4817 8.34263 13.4768 8.31542 13.4752 8.28668C13.4692 8.17086 13.5206 8.07401 13.5901 8.07037C13.6596 8.06673 13.7208 8.15767 13.7269 8.27349C13.7291 8.31503 13.7239 8.35414 13.7131 8.38737C13.7385 8.38468 13.766 8.38507 13.7943 8.38905C13.9092 8.4052 13.9945 8.47414 13.9848 8.54305C13.9751 8.61196 13.8741 8.65474 13.7593 8.6386C13.6444 8.62246 13.5592 8.55351 13.5689 8.4846L13.5696 8.48012L13.569 8.47979L13.5684 8.48477ZM14.3696 8.81784C14.472 8.87229 14.5815 8.86662 14.6142 8.80518L14.6159 8.80174C14.6259 8.81228 14.6378 8.81996 14.6513 8.82409C14.7178 8.84444 14.7993 8.77102 14.8332 8.66011C14.8671 8.54919 14.8406 8.44279 14.7741 8.42244C14.7075 8.4021 14.6261 8.47552 14.5922 8.58643C14.5839 8.61337 14.5793 8.64004 14.5779 8.66528C14.555 8.63912 14.5243 8.61473 14.4879 8.59534C14.3855 8.54089 14.276 8.54656 14.2433 8.608C14.2106 8.66945 14.2672 8.76339 14.3696 8.81784ZM10.2479 8.84329C10.1455 8.89774 10.036 8.89207 10.0033 8.83062C10.0028 8.82959 10.0022 8.82854 10.0017 8.82749C9.99168 8.83811 9.97977 8.84585 9.96619 8.85C9.89965 8.87034 9.81821 8.79692 9.7843 8.68601C9.75039 8.5751 9.77685 8.46869 9.8434 8.44835C9.90994 8.428 9.99138 8.50142 10.0253 8.61233C10.0335 8.63912 10.0381 8.66564 10.0396 8.69075C10.0625 8.66458 10.0931 8.64018 10.1296 8.62078C10.232 8.56633 10.3415 8.572 10.3742 8.63345C10.4068 8.69489 10.3503 8.78884 10.2479 8.84329Z" fill="#C88A02"/>
<path fill-rule="evenodd" clip-rule="evenodd" d="M12.2435 6.05713H12.4185V6.16769H12.5324V6.34269H12.4185V6.69272H12.5324V6.86772H12.127V6.69272H12.2435V6.34269H12.127V6.16769H12.2435V6.05713Z" fill="#C88A02"/>
<rect x="12.2109" y="7.0083" width="0.336" height="1.092" fill="#C88A02"/>
<path d="M10.8586 7.19101L10.8571 7.275C10.1123 7.26199 9.68502 7.37069 9.57657 7.58733C9.46445 7.8113 9.4853 8.08356 9.64241 8.40698L9.56685 8.44369C9.39922 8.09861 9.37633 7.79967 9.50146 7.54972C9.63026 7.29244 10.0822 7.17746 10.8586 7.19101Z" fill="white"/>
<path d="M11.0032 7.93596L10.9602 8.00808C10.798 7.91123 10.7168 7.74595 10.7168 7.51817C10.7168 7.19081 10.8854 6.99884 11.2584 6.86747C11.4965 6.78363 11.8217 6.81801 12.235 6.96784L12.2063 7.04681C11.8096 6.90297 11.5027 6.87053 11.2863 6.9467C10.9442 7.0672 10.8008 7.23046 10.8008 7.51817C10.8008 7.71805 10.8682 7.85534 11.0032 7.93596Z" fill="white"/>
<path d="M9.74926 8.27848L9.59075 8.33416C9.42629 7.8659 9.47325 7.54789 9.75427 7.41071C10.0019 7.28983 10.3628 7.24064 10.8387 7.25992L10.8319 7.42779C10.3813 7.40953 10.0461 7.45522 9.82797 7.56168C9.64328 7.65183 9.6095 7.88057 9.74926 8.27848Z" fill="#C88A02"/>
<path d="M11.5991 7.07962C11.215 7.07962 11.0573 7.17317 10.9672 7.44939C10.9098 7.62541 10.9655 7.77565 11.146 7.91589L11.043 8.04858C10.8092 7.86702 10.7268 7.64466 10.8075 7.39728C10.9223 7.04527 11.1477 6.91162 11.5991 6.91162C11.8951 6.91162 12.1256 6.98936 12.2861 7.14759L12.3111 7.17226V7.98223H12.1431V7.24406C12.0177 7.13518 11.8377 7.07962 11.5991 7.07962Z" fill="#C88A02"/>
<path d="M13.7899 7.275L13.7913 7.35898C14.5362 7.34598 14.9634 7.45467 15.0719 7.67131C15.184 7.89528 15.1631 8.16755 15.006 8.49097L15.0816 8.52767C15.2492 8.1826 15.2721 7.88366 15.147 7.63371C15.0182 7.37643 14.5662 7.26144 13.7899 7.275Z" fill="white"/>
<path d="M13.5261 7.95353L13.5691 8.02566C13.7313 7.92881 13.8125 7.76352 13.8125 7.53575C13.8125 7.20839 13.6439 7.01642 13.2709 6.88505C13.0328 6.80121 12.7076 6.83559 12.2943 6.98542L12.3229 7.06439C12.7197 6.92055 13.0266 6.8881 13.2429 6.96428C13.5851 7.08478 13.7285 7.24803 13.7285 7.53575C13.7285 7.73563 13.6611 7.87292 13.5261 7.95353Z" fill="white"/>
<path d="M14.9519 8.36198L15.1104 8.41765C15.2749 7.94939 15.2279 7.63138 14.9469 7.4942C14.6993 7.37333 14.3384 7.32413 13.8624 7.34342L13.8692 7.51128C14.3199 7.49302 14.6551 7.53872 14.8732 7.64518C15.0579 7.73533 15.0917 7.96407 14.9519 8.36198Z" fill="#C88A02"/>
<path d="M13.0903 7.09183C13.4744 7.09183 13.6322 7.18538 13.7223 7.46159C13.7797 7.63762 13.724 7.78786 13.5434 7.92809L13.6465 8.06079C13.8803 7.87922 13.9627 7.65686 13.882 7.40949C13.7671 7.05748 13.5418 6.92383 13.0903 6.92383C12.7944 6.92383 12.5639 7.00157 12.4034 7.15979L12.3783 7.18447V7.99444H12.5463V7.25627C12.6717 7.14739 12.8518 7.09183 13.0903 7.09183Z" fill="#C88A02"/>
<path opacity="0.3" fill-rule="evenodd" clip-rule="evenodd" d="M9.60547 9.94775H15.0655V14.8534C15.0655 14.8534 14.6599 16.4998 12.3355 16.4998C10.0111 16.4998 9.60547 14.81 9.60547 14.81V9.94775Z" fill="#E1E5E8"/>
<mask id="mask4_260_1785" style="mask-type:alpha" maskUnits="userSpaceOnUse" x="9" y="9" width="7" height="8">
<path fill-rule="evenodd" clip-rule="evenodd" d="M9.60547 9.94775H15.0655V14.8534C15.0655 14.8534 14.6599 16.4998 12.3355 16.4998C10.0111 16.4998 9.60547 14.81 9.60547 14.81V9.94775Z" fill="white"/>
</mask>
<g mask="url(#mask4_260_1785)">
<rect x="9.60547" y="12.9717" width="2.772" height="3.276" fill="#FFC034"/>
<rect x="9.93945" y="13.1392" width="0.336" height="3.108" fill="#AD1619"/>
<rect x="11.1172" y="13.1392" width="0.336" height="3.108" fill="#AD1619"/>
<rect x="10.5273" y="13.1392" width="0.336" height="3.108" fill="#AD1619"/>
<rect x="11.7051" y="13.1392" width="0.336" height="3.108" fill="#AD1619"/>
<rect x="9.60547" y="9.86377" width="2.772" height="3.192" fill="#AD1619"/>
<rect x="12.293" y="12.8877" width="2.772" height="3.192" fill="#AD1619"/>
<rect x="12.293" y="9.94775" width="2.94" height="3.108" fill="#F1F9FF"/>
<path fill-rule="evenodd" clip-rule="evenodd" d="M10.7799 10.1997H11.0319V10.8968H11.2018V10.548H11.4538V10.8968H11.7054V11.3324H11.453V12.1162H11.7054V12.5517H10.1934V12.1162H10.445V11.3324H10.1934V10.8968H10.3617V10.548H10.6137V10.8968H10.7799V10.1997Z" fill="#C88A02"/>
<path d="M13.7344 10.3458L13.9064 10.1616L14.2676 10.499L14.0955 10.6831L13.7344 10.3458Z" fill="#C88A02"/>
<path fill-rule="evenodd" clip-rule="evenodd" d="M14.7699 15.1047V13.2656H12.6699V15.0893L12.6733 15.1035C12.7796 15.5565 13.1416 15.7856 13.7199 15.7856C14.2977 15.7856 14.6597 15.5624 14.7664 15.1192L14.7699 15.1047ZM13.7203 15.5333C13.2563 15.5333 13.0028 15.377 12.9223 15.0592V13.5173H14.5183V15.0738C14.4379 15.3812 14.1845 15.5333 13.7203 15.5333Z" fill="#FFC034"/>
<path fill-rule="evenodd" clip-rule="evenodd" d="M13.8081 13.4199H13.6331V14.2546L12.9427 13.5036L12.819 13.6174L13.4426 14.2956H12.8782V14.5476H13.3124H13.4563L12.8184 15.2414L12.942 15.3551L13.6331 14.6035V15.5791H13.8081V14.6932L14.4168 15.3551L14.5404 15.2414L13.9025 14.5476H14.6151V14.2956H13.9162L14.5398 13.6174L14.4161 13.5036L13.8081 14.1649V13.4199Z" fill="#FFC034"/>
<path fill-rule="evenodd" clip-rule="evenodd" d="M14.1109 16.0818C14.1109 16.0818 12.3317 16.2217 12.3317 15.0742C12.3317 15.0742 12.3148 16.0818 10.457 16.0818V16.9877H14.1109V16.0818Z" fill="#F1F9FF"/>
<path fill-rule="evenodd" clip-rule="evenodd" d="M12.3351 13.6438C12.683 13.6438 12.9651 13.3429 12.9651 12.9718C12.9651 12.6007 12.683 12.2998 12.3351 12.2998C11.9871 12.2998 11.7051 12.6007 11.7051 12.9718C11.7051 13.3429 11.9871 13.6438 12.3351 13.6438Z" fill="#005BBF" stroke="#AD1619" stroke-width="1.16667"/>
</g>
</g>
</g>
<g opacity="0.5">
<rect x="4" y="3" width="24.3691" height="18.2768" rx="3.80767" fill="url(#paint0_linear_260_1785)" style="mix-blend-mode:overlay"/>
</g>
<defs>
<linearGradient id="paint0_linear_260_1785" x1="28.3691" y1="3" x2="4" y2="21.2768" gradientUnits="userSpaceOnUse">
<stop stop-color="white" stop-opacity="0.3"/>
<stop offset="0.262741" stop-opacity="0.27"/>
<stop offset="0.369956" stop-color="white" stop-opacity="0.26"/>
<stop offset="0.487001" stop-opacity="0.55"/>
<stop offset="0.594445" stop-opacity="0.24"/>
<stop offset="0.736408" stop-color="white" stop-opacity="0.3"/>
<stop offset="0.901459" stop-color="#272727" stop-opacity="0.22"/>
<stop offset="1" stop-opacity="0.2"/>
</linearGradient>
</defs>
</svg>
