<svg width="33" height="25" viewBox="0 0 33 25" fill="none" xmlns="http://www.w3.org/2000/svg">
<mask id="mask0_260_1785" style="mask-type:alpha" maskUnits="userSpaceOnUse" x="4" y="3" width="24" height="18">
<rect x="4" y="3" width="24" height="18" rx="3.81" fill="white"/>
</mask>
<g mask="url(#mask0_260_1785)">
<path fill-rule="evenodd" clip-rule="evenodd" d="M4 3H28V21H4V3Z" fill="#F7FCFF"/>
<path fill-rule="evenodd" clip-rule="evenodd" d="M4 3V21H28V3H4Z" fill="#E31D1C"/>
<mask id="mask1_260_1785" style="mask-type:alpha" maskUnits="userSpaceOnUse" x="4" y="3" width="24" height="18">
<path fill-rule="evenodd" clip-rule="evenodd" d="M4 3V21H28V3H4Z" fill="white"/>
</mask>
<g mask="url(#mask1_260_1785)">
<path fill-rule="evenodd" clip-rule="evenodd" d="M16.0464 14.9846L12.1833 17.4409L13.479 13.1411L10.7236 10.3318L14.5225 10.2488L16.2032 6.00397L17.7347 10.3049L21.5246 10.3711L18.6766 13.2318L20.0065 17.3223L16.0464 14.9846Z" fill="#FFD221"/>
</g>
</g>
<g opacity="0.5">
<rect x="4" y="3" width="24.3691" height="18.2768" rx="3.80767" fill="url(#paint0_linear_260_1785)" style="mix-blend-mode:overlay"/>
</g>
<defs>
<linearGradient id="paint0_linear_260_1785" x1="28.3691" y1="3" x2="4" y2="21.2768" gradientUnits="userSpaceOnUse">
<stop stop-color="white" stop-opacity="0.3"/>
<stop offset="0.262741" stop-opacity="0.27"/>
<stop offset="0.369956" stop-color="white" stop-opacity="0.26"/>
<stop offset="0.487001" stop-opacity="0.55"/>
<stop offset="0.594445" stop-opacity="0.24"/>
<stop offset="0.736408" stop-color="white" stop-opacity="0.3"/>
<stop offset="0.901459" stop-color="#272727" stop-opacity="0.22"/>
<stop offset="1" stop-opacity="0.2"/>
</linearGradient>
</defs>
</svg>
