<svg width="44" height="44" viewBox="0 0 44 44" fill="none" xmlns="http://www.w3.org/2000/svg">
<path fill-rule="evenodd" clip-rule="evenodd" d="M21.0127 5.65979C24.6957 5.56388 27.1028 -0.111021 30.7855 0.00165591C34.7462 0.122839 38.8425 2.49498 41.2168 6.27797C43.6307 10.124 44.7486 15.6404 43.457 20.1909C42.1709 24.7223 37.4064 26.1247 34.6101 29.5544C32.6125 32.0045 32.0137 36.1352 29.3738 37.4639C26.7466 38.7861 23.7621 35.4962 21.0127 36.3978C16.711 37.8085 13.9448 44.3795 9.49596 43.9828C5.36053 43.6139 1.24238 39.3193 0.175978 34.5395C-0.929878 29.5828 3.51104 25.2562 4.18792 20.1909C4.72249 16.1907 2.31474 11.9656 3.68769 8.26064C5.07938 4.50507 8.0675 1.01707 11.4831 0.504311C15.0038 -0.0242189 17.465 5.75217 21.0127 5.65979Z" fill="#4FEBF9" fill-opacity="0.3"/>
<path fill-rule="evenodd" clip-rule="evenodd" d="M22.4804 2.33594C25.5104 2.46031 28.5743 0.100402 31.3812 1.38464C34.2228 2.68476 35.3266 6.42377 37.2573 9.09673C39.5574 12.2813 44.9546 14.7466 43.8536 18.6528C42.5655 23.2231 35.0649 21.2676 32.701 25.2624C30.5771 28.8516 34.4641 34.3025 32.4306 37.9569C30.4279 41.5558 26.0016 45.1873 22.4804 43.6291C18.3612 41.8062 18.4731 35.0613 16.2264 30.7861C15.1474 28.7329 14.4524 26.312 12.6841 24.9879C8.77475 22.0606 0.592927 23.8812 0.0227838 18.6528C-0.509028 13.7759 8.41838 15.1574 11.1977 11.3563C13.298 8.4838 10.4968 2.79521 13.1949 0.638135C15.7917 -1.43802 19.292 2.20506 22.4804 2.33594Z" fill="#4FEBF9" fill-opacity="0.3"/>
<path d="M14.5 25.0779H27.2387C29.0082 25.0779 30.09 22.9674 29.1576 21.3339L28.5456 20.2615C27.9433 19.2063 27.9433 17.8716 28.5456 16.8164L29.1576 15.7441C30.09 14.1105 29.0082 12 27.2387 12L14.5 12L14.5 25.0779Z" fill="#4FEBF9"/>
<path d="M14.5 25.0779H27.2387C29.0082 25.0779 30.09 22.9674 29.1576 21.3339L28.5456 20.2615C27.9433 19.2063 27.9433 17.8716 28.5456 16.8164L29.1576 15.7441C30.09 14.1105 29.0082 12 27.2387 12L14.5 12L14.5 25.0779ZM14.5 25.0779L14.5 32" stroke="#4FEBF9" stroke-width="1.5" stroke-linecap="round" stroke-linejoin="round"/>
</svg>
