<svg width="44" height="44" viewBox="0 0 44 44" fill="none" xmlns="http://www.w3.org/2000/svg">
<path fill-rule="evenodd" clip-rule="evenodd" d="M18.1734 0.161382C21.3003 -0.523378 24.3193 1.16591 27.483 1.59493C32.7621 2.31084 39.9027 -1.20243 43.0684 3.5374C46.0613 8.01842 41.0247 14.1907 39.4272 19.4783C38.2771 23.2855 36.8266 26.7861 34.9979 30.2515C33.1794 33.6976 31.6562 37.4304 28.728 39.7535C25.6639 42.1844 21.9284 43.2605 18.1734 43.5993C14.2142 43.9565 9.39628 44.8572 6.57852 41.7519C3.62034 38.4918 5.59166 32.7511 4.3298 28.3427C3.40681 25.1182 0.616077 22.8302 0.202886 19.4783C-0.23466 15.9288 -0.0969705 11.8595 1.95708 9.09455C3.9987 6.34637 7.89382 6.83912 10.7693 5.2551C13.4155 3.79738 15.2748 0.79617 18.1734 0.161382Z" fill="#4FEBF9" fill-opacity="0.18"/>
<path fill-rule="evenodd" clip-rule="evenodd" d="M24.5938 0.031301C28.8771 0.625378 28.0913 7.96702 31.6661 10.3313C34.8118 12.4118 40.1803 9.32158 42.7546 12.0424C45.1588 14.5835 43.4361 18.8012 42.9062 22.2115C42.4351 25.2434 42.0228 28.5278 39.8474 30.7526C37.7668 32.8804 33.7768 31.8968 31.5236 33.8524C28.3542 36.6032 28.8343 43.6711 24.5938 43.9914C20.5308 44.2984 20.8572 36.2564 17.0113 34.9488C11.6861 33.1383 2.98454 40.6241 0.392194 35.763C-2.26898 30.7729 9.45644 27.7807 10.2186 22.2115C10.8244 17.7851 2.06484 14.7101 3.83747 10.5891C5.4897 6.74798 12.4483 10.126 16.2486 8.19297C19.8078 6.38257 20.6153 -0.520505 24.5938 0.031301Z" fill="#4FEBF9" fill-opacity="0.18"/>
<path d="M23.096 27.2102C23.2865 26.6918 24.0468 26.6918 24.2373 27.2102L24.7582 28.6278C24.8192 28.7938 24.9546 28.9243 25.1267 28.9831L26.5968 29.4854C27.1344 29.6691 27.1344 30.4023 26.5968 30.586L25.1267 31.0883C24.9546 31.1471 24.8192 31.2776 24.7582 31.4436L24.2373 32.8612C24.0468 33.3796 23.2865 33.3796 23.096 32.8612L22.5751 31.4436C22.5141 31.2776 22.3787 31.1471 22.2067 31.0883L20.7365 30.586C20.1989 30.4023 20.1989 29.6691 20.7365 29.4854L22.2067 28.9831C22.3787 28.9243 22.5141 28.7938 22.5751 28.6278L23.096 27.2102Z" fill="#4FEBF9"/>
<path d="M25.2993 11.341C25.5889 10.553 26.7445 10.553 27.034 11.341L28.0264 14.0417C28.1191 14.2939 28.3249 14.4923 28.5864 14.5817L31.3871 15.5386C32.2043 15.8178 32.2043 16.9322 31.3871 17.2114L28.5864 18.1683C28.3249 18.2577 28.1191 18.4561 28.0264 18.7083L27.034 21.409C26.7445 22.197 25.5889 22.197 25.2993 21.409L24.3069 18.7083C24.2142 18.4561 24.0085 18.2577 23.7469 18.1683L20.9462 17.2114C20.129 16.9322 20.129 15.8178 20.9462 15.5386L23.7469 14.5817C24.0085 14.4923 24.2142 14.2939 24.3069 14.0417L25.2993 11.341Z" fill="#4FEBF9"/>
<path d="M15.108 18.7036C15.3223 18.0988 16.1777 18.0988 16.392 18.7036L16.978 20.3575C17.0466 20.5511 17.1989 20.7034 17.3925 20.772L19.0464 21.358C19.6512 21.5723 19.6512 22.4277 19.0464 22.642L17.3925 23.228C17.1989 23.2966 17.0466 23.4489 16.978 23.6425L16.392 25.2964C16.1777 25.9012 15.3223 25.9012 15.108 25.2964L14.522 23.6425C14.4534 23.4489 14.3011 23.2966 14.1075 23.228L12.4536 22.642C11.8488 22.4277 11.8488 21.5723 12.4536 21.358L14.1075 20.772C14.3011 20.7034 14.4534 20.5511 14.522 20.3575L15.108 18.7036Z" fill="#4FEBF9"/>
<path d="M23.096 27.2102C23.2865 26.6918 24.0468 26.6918 24.2373 27.2102L24.7582 28.6278C24.8192 28.7938 24.9546 28.9243 25.1267 28.9831L26.5968 29.4854C27.1344 29.6691 27.1344 30.4023 26.5968 30.586L25.1267 31.0883C24.9546 31.1471 24.8192 31.2776 24.7582 31.4436L24.2373 32.8612C24.0468 33.3796 23.2865 33.3796 23.096 32.8612L22.5751 31.4436C22.5141 31.2776 22.3787 31.1471 22.2067 31.0883L20.7365 30.586C20.1989 30.4023 20.1989 29.6691 20.7365 29.4854L22.2067 28.9831C22.3787 28.9243 22.5141 28.7938 22.5751 28.6278L23.096 27.2102Z" stroke="#4FEBF9" stroke-width="1.5" stroke-linejoin="round"/>
<path d="M25.2993 11.341C25.5889 10.553 26.7445 10.553 27.034 11.341L28.0264 14.0417C28.1191 14.2939 28.3249 14.4923 28.5864 14.5817L31.3871 15.5386C32.2043 15.8178 32.2043 16.9322 31.3871 17.2114L28.5864 18.1683C28.3249 18.2577 28.1191 18.4561 28.0264 18.7083L27.034 21.409C26.7445 22.197 25.5889 22.197 25.2993 21.409L24.3069 18.7083C24.2142 18.4561 24.0085 18.2577 23.7469 18.1683L20.9462 17.2114C20.129 16.9322 20.129 15.8178 20.9462 15.5386L23.7469 14.5817C24.0085 14.4923 24.2142 14.2939 24.3069 14.0417L25.2993 11.341Z" stroke="#4FEBF9" stroke-width="1.5" stroke-linejoin="round"/>
<path d="M15.108 18.7036C15.3223 18.0988 16.1777 18.0988 16.392 18.7036L16.978 20.3575C17.0466 20.5511 17.1989 20.7034 17.3925 20.772L19.0464 21.358C19.6512 21.5723 19.6512 22.4277 19.0464 22.642L17.3925 23.228C17.1989 23.2966 17.0466 23.4489 16.978 23.6425L16.392 25.2964C16.1777 25.9012 15.3223 25.9012 15.108 25.2964L14.522 23.6425C14.4534 23.4489 14.3011 23.2966 14.1075 23.228L12.4536 22.642C11.8488 22.4277 11.8488 21.5723 12.4536 21.358L14.1075 20.772C14.3011 20.7034 14.4534 20.5511 14.522 20.3575L15.108 18.7036Z" stroke="#4FEBF9" stroke-width="1.5" stroke-linejoin="round"/>
</svg>
