<svg width="22" height="17" viewBox="0 0 22 17" fill="none" xmlns="http://www.w3.org/2000/svg">
<path fill-rule="evenodd" clip-rule="evenodd" d="M21.9616 1.89988C21.1886 2.22188 20.3576 2.43688 19.4866 2.53488C20.3766 2.03488 21.0596 1.24288 21.3816 0.300883C20.5476 0.762883 19.6256 1.09888 18.6436 1.28088C17.8586 0.494883 16.7376 0.00488281 15.4986 0.00488281C13.1186 0.00488281 11.1876 1.81388 11.1876 4.04388C11.1876 4.36088 11.2256 4.66988 11.2996 4.96488C7.71761 4.79588 4.54161 3.18788 2.41561 0.744883C2.04461 1.34188 1.83261 2.03488 1.83261 2.77588C1.83261 4.17588 2.59361 5.41388 3.74961 6.13788C3.04361 6.11588 2.37961 5.93488 1.79761 5.63188C1.79761 5.64988 1.79761 5.66488 1.79761 5.68388C1.79761 7.64088 3.28261 9.27288 5.25461 9.64388C4.89361 9.73588 4.51161 9.78388 4.11961 9.78388C3.84161 9.78388 3.57161 9.75988 3.30861 9.71388C3.85661 11.3169 5.44861 12.4859 7.33461 12.5189C5.85961 13.6019 4.00161 14.2469 1.98161 14.2469C1.63361 14.2469 1.29061 14.2279 0.953613 14.1909C2.86061 15.3359 5.12661 16.0059 7.56061 16.0059C15.4886 16.0059 19.8236 9.84988 19.8236 4.51288C19.8236 4.33688 19.8186 4.16388 19.8106 3.98988C20.6526 3.41988 21.3836 2.70888 21.9616 1.89988Z" fill="white"/>
</svg>
