<svg width="44" height="44" viewBox="0 0 44 44" fill="none" xmlns="http://www.w3.org/2000/svg">
<path fill-rule="evenodd" clip-rule="evenodd" d="M23.9006 0.642653C27.1393 -0.380308 31.0861 -0.312014 33.809 1.80225C36.532 3.91667 36.0913 8.36518 37.8058 11.4399C39.5397 14.5496 43.3885 16.3447 43.9064 19.9111C44.4289 23.5089 42.6909 27.211 40.5049 30.0266C38.4448 32.6803 34.8537 33.0888 32.1713 35.0269C29.2053 37.1698 27.2845 40.7433 23.9006 42.0231C19.8735 43.5462 15.0541 45.1062 11.3137 42.9154C7.57951 40.7282 6.64255 35.4947 5.39575 31.1845C4.33558 27.5194 5.31972 23.6792 4.65941 19.9111C3.81213 15.076 -2.34259 9.39853 0.97253 5.94303C4.82776 1.92455 11.6189 8.36293 16.9124 7.13922C19.9975 6.42601 20.875 1.59834 23.9006 0.642653Z" fill="#4FEBF9" fill-opacity="0.18"/>
<path fill-rule="evenodd" clip-rule="evenodd" d="M20.3535 0.106507C24.4295 1.0097 24.154 7.79038 27.7925 9.82025C31.4946 11.8856 36.9733 8.52318 40.247 11.2048C43.3551 13.7507 44.99 18.9185 43.356 22.5689C41.5549 26.5927 35.3022 26.2049 32.145 29.3047C30.1168 31.2962 30.5143 34.7176 28.732 36.9274C26.4129 39.8027 23.9951 44.6656 20.3535 43.9241C16.3312 43.1051 17.2196 36.0583 13.7545 33.8777C10.5359 31.8521 5.48344 35.1613 2.56578 32.73C-0.168695 30.4514 -0.219807 26.0835 0.183347 22.5689C0.569574 19.2017 2.9287 16.5251 4.7535 13.6574C6.51255 10.8931 8.22396 8.18911 10.705 6.03394C13.5992 3.5199 16.5953 -0.726246 20.3535 0.106507Z" fill="#4FEBF9" fill-opacity="0.18"/>
<path d="M23.25 11.0655C25.9534 10.2952 28.9285 10.9333 30.9976 13.0024C33.0667 15.0715 33.7048 18.0466 32.9345 20.75M25.6711 14.4551C26.6367 14.2628 27.7488 14.5959 28.5765 15.4235C29.4041 16.2512 29.7372 17.3633 29.5449 18.3289" stroke="#4FEBF9" stroke-width="2" stroke-linecap="round" stroke-linejoin="round"/>
<path d="M25.1763 25.75C23.4221 25.75 22 27.0391 22 28.6292C22 28.9898 22.0549 29.3487 22.1633 29.6957L22.2675 30.0295C22.7589 31.6032 24.1855 32.7923 25.9566 33.1044C27.0586 33.2985 28.1914 33.2985 29.2934 33.1044C31.0645 32.7923 32.4911 31.6032 32.9825 30.0295L33.0867 29.6957C33.1951 29.3487 33.25 28.9898 33.25 28.6292C33.25 27.0391 31.8279 25.75 30.0737 25.75H25.1763Z" fill="#4FEBF9" fill-opacity="0.15"/>
<path d="M18.25 13.9263C18.25 12.1721 16.9609 10.75 15.3708 10.75C15.0102 10.75 14.6513 10.8049 14.3043 10.9133L13.9705 11.0175C12.3968 11.5089 11.2077 12.9355 10.8956 14.7066C10.7015 15.8086 10.7015 16.9414 10.8956 18.0434C11.2077 19.8145 12.3968 21.2411 13.9705 21.7325L14.3043 21.8367C14.6513 21.9451 15.0102 22 15.3708 22C16.9609 22 18.25 20.5779 18.25 18.8237L18.25 13.9263Z" fill="#4FEBF9" fill-opacity="0.15"/>
<path d="M25.9566 33.1044C27.0586 33.2985 28.1914 33.2985 29.2934 33.1044C31.0645 32.7923 32.4911 31.6032 32.9825 30.0295L33.0867 29.6957C33.1951 29.3487 33.25 28.9898 33.25 28.6292C33.25 27.0391 31.8279 25.75 30.0737 25.75H25.1763C23.4221 25.75 22 27.0391 22 28.6292C22 28.9898 22.0549 29.3487 22.1633 29.6957L22.2675 30.0295C22.7589 31.6032 24.1855 32.7923 25.9566 33.1044ZM25.9566 33.1044C18.3024 31.6861 12.3139 25.6976 10.8956 18.0434M10.8956 18.0434C10.7015 16.9414 10.7015 15.8086 10.8956 14.7066C11.2077 12.9355 12.3968 11.5089 13.9705 11.0175L14.3043 10.9133C14.6513 10.8049 15.0102 10.75 15.3708 10.75C16.9609 10.75 18.25 12.1721 18.25 13.9263L18.25 18.8237C18.25 20.5779 16.9609 22 15.3708 22C15.0102 22 14.6513 21.9451 14.3043 21.8367L13.9705 21.7325C12.3968 21.2411 11.2077 19.8145 10.8956 18.0434Z" stroke="#4FEBF9" stroke-width="3.5"/>
</svg>
